<svg width="34" height="34" xmlns="http://www.w3.org/2000/svg" xmlns:xlink="http://www.w3.org/1999/xlink" overflow="hidden"><defs><clipPath id="clip0"><rect x="760" y="208" width="34" height="34"/></clipPath></defs><g clip-path="url(#clip0)" transform="translate(-760 -208)"><path d="M765.18 230.549C764.937 230.128 764.398 229.983 763.976 230.227 763.555 230.47 763.41 231.008 763.654 231.43L765.414 234.482C765.658 234.903 766.196 235.048 766.618 234.805 767.04 234.562 767.185 234.023 766.942 233.602Z"/><path d="M778.062 232.34 773.983 233.513 773.015 232.457 778.327 230.931ZM786.633 227.791 784.667 224.387 782.024 219.809 780.058 216.405C779.89 216.128 779.53 216.039 779.253 216.207 779.215 216.23 779.18 216.257 779.148 216.288L765.767 229.2 768.408 233.778 771.753 232.838 773.25 234.452C773.473 234.694 773.81 234.795 774.13 234.717L778.561 233.455C778.62 233.425 778.708 233.396 778.767 233.367 778.983 233.241 779.134 233.027 779.177 232.78L779.588 230.608 786.308 228.701C786.637 228.57 786.798 228.198 786.668 227.869 786.657 227.842 786.645 227.816 786.631 227.791Z"/><path d="M786.267 219.518 789.798 217.532 790.493 218.767 786.961 220.753Z"/><path d="M786.862 223.35 787.244 221.986 791.146 223.079 790.764 224.443Z"/><path d="M783.972 218.282 785.065 214.381 786.429 214.763 785.336 218.664Z"/></g></svg>