<svg width="34" height="34" xmlns="http://www.w3.org/2000/svg" xmlns:xlink="http://www.w3.org/1999/xlink" overflow="hidden"><defs><clipPath id="clip0"><rect x="757" y="431" width="34" height="34"/></clipPath></defs><g clip-path="url(#clip0)" transform="translate(-757 -431)"><path d="M779.667 441.625C779.667 444.755 777.13 447.292 774 447.292 770.87 447.292 768.333 444.755 768.333 441.625 768.333 438.495 770.87 435.958 774 435.958 777.13 435.958 779.667 438.495 779.667 441.625Z"/><path d="M785.333 460.042 785.333 454.375C785.333 453.525 784.908 452.675 784.2 452.108 782.642 450.833 780.658 449.983 778.675 449.417 777.258 448.992 775.7 448.708 774 448.708 772.442 448.708 770.883 448.992 769.325 449.417 767.342 449.983 765.358 450.975 763.8 452.108 763.092 452.675 762.667 453.525 762.667 454.375L762.667 460.042 785.333 460.042Z"/></g></svg>